v 1.000000 -1.000000 -1.000000
v 1.000000 -1.000000 1.000000
v -1.000000 -1.000000 1.000000
v -1.000000 -1.000000 -1.000000
v 1.000000 1.000000 -1.000000
v 1.000000 1.000000 1.000000
v -1.000000 1.000000 1.000000
v -1.000000 1.000000 -1.000000
vt -1.000000 1.000000
vt -1.000000 -1.000000
vt 1.000000 -1.000000
vt 1.000000 1.000000
vn 0.000000 -1.000000 0.000000
vn 0.000000 1.000000 0.000000
vn 1.000000 -0.000000 0.000000
vn -0.000000 -0.000000 1.000000
vn -1.000000 -0.000000 -0.000000
vn 0.000000 0.000000 -1.000000
s off
f 2/4/1 3/1/1 4/2/1
f 8/1/2 7/2/2 6/3/2
f 1/3/3 5/4/3 6/1/3
f 2/3/4 6/4/4 7/1/4
f 7/4/5 8/1/5 4/2/5
f 1/2/6 4/3/6 8/4/6
f 1/3/1 2/4/1 4/2/1
f 5/4/2 8/1/2 6/3/2
f 2/2/3 1/3/3 6/1/3
f 3/2/4 2/3/4 7/1/4
f 3/3/5 7/4/5 4/2/5
f 5/1/6 1/2/6 8/4/6
