# Blender v2.72 (sub 0) OBJ File: 'sphere12.blend'
# www.blender.org
o Sphere
v -0.258819 0.965926 0.000000
v -0.500000 0.866025 0.000000
v -0.707107 0.707107 0.000000
v -0.866025 0.500000 0.000000
v -0.965926 0.258819 0.000000
v -1.000000 0.000000 0.000000
v -0.965926 -0.258819 0.000000
v -0.866026 -0.500000 0.000000
v -0.707107 -0.707107 0.000000
v -0.500000 -0.866025 0.000000
v -0.258819 -0.965926 0.000000
v -0.000000 -1.000000 0.000000
v -0.224144 0.965926 -0.129409
v -0.433013 0.866025 -0.250000
v -0.612372 0.707107 -0.353553
v -0.750000 0.500000 -0.433013
v -0.836516 0.258819 -0.482963
v -0.866025 0.000000 -0.500000
v -0.836516 -0.258819 -0.482963
v -0.750000 -0.500000 -0.433013
v -0.612373 -0.707107 -0.353553
v -0.433013 -0.866025 -0.250000
v -0.224144 -0.965926 -0.129409
v -0.129410 0.965926 -0.224144
v -0.250000 0.866025 -0.433012
v -0.353554 0.707107 -0.612372
v -0.433013 0.500000 -0.750000
v -0.482963 0.258819 -0.836516
v -0.500000 0.000000 -0.866025
v -0.482963 -0.258819 -0.836516
v -0.433013 -0.500000 -0.750000
v -0.353554 -0.707107 -0.612372
v -0.250000 -0.866025 -0.433013
v -0.129410 -0.965926 -0.224144
v -0.000000 0.965926 -0.258819
v -0.000000 0.866025 -0.500000
v -0.000000 0.707107 -0.707106
v -0.000000 0.500000 -0.866025
v -0.000000 0.258819 -0.965925
v -0.000000 0.000000 -1.000000
v -0.000000 -0.258819 -0.965926
v -0.000000 -0.500000 -0.866025
v -0.000000 -0.707107 -0.707107
v -0.000000 -0.866025 -0.500000
v -0.000000 -0.965926 -0.258819
v -0.000001 1.000000 0.000000
v 0.129409 0.965926 -0.224144
v 0.249999 0.866025 -0.433012
v 0.353553 0.707107 -0.612372
v 0.433012 0.500000 -0.750000
v 0.482962 0.258819 -0.836516
v 0.499999 0.000000 -0.866025
v 0.482962 -0.258819 -0.836516
v 0.433012 -0.500000 -0.750000
v 0.353553 -0.707107 -0.612372
v 0.250000 -0.866025 -0.433012
v 0.129409 -0.965926 -0.224144
v 0.224143 0.965926 -0.129409
v 0.433012 0.866025 -0.250000
v 0.612372 0.707107 -0.353553
v 0.749999 0.500000 -0.433012
v 0.836516 0.258819 -0.482963
v 0.866025 0.000000 -0.500000
v 0.836516 -0.258819 -0.482963
v 0.749999 -0.500000 -0.433013
v 0.612372 -0.707107 -0.353553
v 0.433012 -0.866025 -0.250000
v 0.224143 -0.965926 -0.129409
v 0.258818 0.965926 -0.000000
v 0.499999 0.866025 0.000000
v 0.707106 0.707107 0.000000
v 0.866025 0.500000 0.000000
v 0.965925 0.258819 0.000000
v 0.999999 0.000000 0.000000
v 0.965925 -0.258819 0.000000
v 0.866025 -0.500000 0.000000
v 0.707106 -0.707107 0.000000
v 0.499999 -0.866025 0.000000
v 0.258819 -0.965926 -0.000000
v 0.224143 0.965926 0.129409
v 0.433012 0.866025 0.250000
v 0.612372 0.707107 0.353553
v 0.749999 0.500000 0.433012
v 0.836516 0.258819 0.482963
v 0.866025 0.000000 0.500000
v 0.836516 -0.258819 0.482963
v 0.749999 -0.500000 0.433013
v 0.612372 -0.707107 0.353553
v 0.433012 -0.866025 0.250000
v 0.224143 -0.965926 0.129409
v 0.129409 0.965926 0.224143
v 0.249999 0.866025 0.433012
v 0.353553 0.707107 0.612372
v 0.433012 0.500000 0.750000
v 0.482962 0.258819 0.836516
v 0.499999 0.000000 0.866025
v 0.482962 -0.258819 0.836516
v 0.433012 -0.500000 0.750000
v 0.353553 -0.707107 0.612372
v 0.249999 -0.866025 0.433013
v 0.129409 -0.965926 0.224144
v -0.000000 0.965926 0.258819
v -0.000000 0.866025 0.499999
v -0.000001 0.707107 0.707106
v -0.000000 0.500000 0.866025
v -0.000000 0.258819 0.965925
v -0.000001 0.000000 0.999999
v -0.000000 -0.258819 0.965925
v -0.000000 -0.500000 0.866025
v -0.000000 -0.707107 0.707107
v -0.000000 -0.866025 0.500000
v -0.000000 -0.965926 0.258819
v -0.129410 0.965926 0.224143
v -0.250000 0.866025 0.433012
v -0.353554 0.707107 0.612372
v -0.433013 0.500000 0.749999
v -0.482963 0.258819 0.836516
v -0.500000 0.000000 0.866025
v -0.482963 -0.258819 0.836516
v -0.433013 -0.500000 0.750000
v -0.353554 -0.707107 0.612372
v -0.250000 -0.866025 0.433012
v -0.129410 -0.965926 0.224144
v -0.224144 0.965926 0.129409
v -0.433013 0.866025 0.250000
v -0.612372 0.707107 0.353553
v -0.750000 0.500000 0.433012
v -0.836516 0.258819 0.482963
v -0.866025 0.000000 0.500000
v -0.836516 -0.258819 0.482963
v -0.750000 -0.500000 0.433012
v -0.612373 -0.707107 0.353553
v -0.433013 -0.866025 0.250000
v -0.224144 -0.965926 0.129409
vn -0.380700 -0.919100 -0.102000
vn -0.600800 -0.783000 -0.161000
vn -0.776000 -0.595500 -0.207900
vn -0.896800 -0.371500 -0.240300
vn -0.958200 -0.126100 -0.256800
vn -0.958200 0.126200 -0.256800
vn -0.896800 0.371500 -0.240300
vn -0.776000 0.595500 -0.207900
vn -0.600800 0.783000 -0.161000
vn -0.380700 0.919100 -0.102000
vn -0.278700 -0.919100 -0.278700
vn -0.439800 -0.783000 -0.439800
vn -0.568100 -0.595500 -0.568100
vn -0.656500 -0.371500 -0.656500
vn -0.701500 -0.126200 -0.701500
vn -0.701500 0.126200 -0.701500
vn -0.656500 0.371500 -0.656500
vn -0.568100 0.595500 -0.568100
vn -0.439800 0.783000 -0.439800
vn -0.278700 0.919100 -0.278700
vn -0.102000 -0.919100 -0.380700
vn -0.161000 -0.783000 -0.600800
vn -0.207900 -0.595500 -0.776000
vn -0.240300 -0.371500 -0.896800
vn -0.256800 -0.126200 -0.958200
vn -0.256800 0.126200 -0.958200
vn -0.240300 0.371500 -0.896800
vn -0.207900 0.595500 -0.776000
vn -0.161000 0.783000 -0.600800
vn -0.102000 0.919100 -0.380700
vn 0.102000 -0.919100 -0.380700
vn 0.161000 -0.783000 -0.600800
vn 0.207900 -0.595500 -0.776000
vn 0.240300 -0.371500 -0.896800
vn 0.256800 -0.126200 -0.958200
vn 0.256800 0.126200 -0.958200
vn 0.240300 0.371500 -0.896800
vn 0.207900 0.595500 -0.776000
vn 0.161000 0.783000 -0.600800
vn 0.102000 0.919100 -0.380700
vn 0.278700 -0.919100 -0.278700
vn 0.439800 -0.783000 -0.439800
vn 0.568100 -0.595500 -0.568100
vn 0.656500 -0.371500 -0.656500
vn 0.701500 -0.126200 -0.701500
vn 0.701500 0.126200 -0.701500
vn 0.656500 0.371500 -0.656500
vn 0.568100 0.595500 -0.568100
vn 0.439800 0.783000 -0.439800
vn 0.278700 0.919100 -0.278700
vn 0.380700 -0.919100 -0.102000
vn 0.600800 -0.783000 -0.161000
vn 0.776000 -0.595500 -0.207900
vn 0.896800 -0.371500 -0.240300
vn 0.958200 -0.126200 -0.256800
vn 0.958200 0.126200 -0.256800
vn 0.896800 0.371500 -0.240300
vn 0.776000 0.595500 -0.207900
vn 0.600800 0.783000 -0.161000
vn 0.380700 0.919100 -0.102000
vn 0.380700 -0.919100 0.102000
vn 0.600800 -0.783000 0.161000
vn 0.776000 -0.595500 0.207900
vn 0.896800 -0.371500 0.240300
vn 0.958200 -0.126200 0.256800
vn 0.958200 0.126200 0.256800
vn 0.896800 0.371500 0.240300
vn 0.776000 0.595500 0.207900
vn 0.600800 0.783000 0.161000
vn 0.380700 0.919100 0.102000
vn 0.278700 -0.919100 0.278700
vn 0.439800 -0.783000 0.439800
vn 0.568100 -0.595500 0.568100
vn 0.656500 -0.371500 0.656500
vn 0.701500 -0.126200 0.701500
vn 0.701500 0.126200 0.701500
vn 0.656500 0.371500 0.656500
vn 0.568100 0.595500 0.568100
vn 0.439800 0.783000 0.439800
vn 0.278700 0.919100 0.278700
vn 0.102000 -0.919100 0.380700
vn 0.161000 -0.783000 0.600800
vn 0.207900 -0.595500 0.776000
vn 0.240300 -0.371500 0.896800
vn 0.256800 -0.126200 0.958200
vn 0.256800 0.126200 0.958200
vn 0.240300 0.371500 0.896800
vn 0.207900 0.595500 0.776000
vn 0.161000 0.783000 0.600800
vn 0.102000 0.919100 0.380700
vn -0.102000 -0.919100 0.380700
vn -0.161000 -0.783000 0.600800
vn -0.207900 -0.595500 0.776000
vn -0.240300 -0.371500 0.896800
vn -0.256800 -0.126200 0.958200
vn -0.256800 0.126200 0.958200
vn -0.240300 0.371500 0.896800
vn -0.207900 0.595500 0.776000
vn -0.161000 0.783000 0.600800
vn -0.102000 0.919100 0.380700
vn -0.278700 -0.919100 0.278700
vn -0.439800 -0.783000 0.439800
vn -0.568100 -0.595500 0.568100
vn -0.656500 -0.371500 0.656500
vn -0.701500 -0.126200 0.701500
vn -0.701500 0.126200 0.701500
vn -0.656500 0.371500 0.656500
vn -0.568100 0.595500 0.568100
vn -0.439800 0.783000 0.439800
vn -0.278700 0.919100 0.278700
vn -0.130400 -0.990800 -0.035000
vn -0.130400 0.990800 -0.035000
vn -0.095500 -0.990800 -0.095500
vn -0.095500 0.990800 -0.095500
vn -0.035000 -0.990800 -0.130400
vn -0.035000 0.990800 -0.130400
vn 0.035000 -0.990800 -0.130400
vn 0.035000 0.990800 -0.130400
vn 0.095500 -0.990800 -0.095500
vn 0.095500 0.990800 -0.095500
vn 0.130400 -0.990800 -0.035000
vn 0.130400 0.990800 -0.035000
vn 0.130400 -0.990800 0.035000
vn 0.130400 0.990800 0.035000
vn 0.095500 -0.990800 0.095500
vn 0.095500 0.990800 0.095500
vn 0.035000 -0.990800 0.130400
vn 0.035000 0.990800 0.130400
vn -0.035000 -0.990800 0.130400
vn -0.035000 0.990800 0.130400
vn -0.095500 -0.990800 0.095500
vn -0.095500 0.990800 0.095500
vn -0.130400 -0.990800 0.035000
vn -0.380700 -0.919100 0.102000
vn -0.600800 -0.783000 0.161000
vn -0.776000 -0.595500 0.207900
vn -0.896800 -0.371500 0.240300
vn -0.958200 -0.126200 0.256800
vn -0.958200 0.126200 0.256800
vn -0.896800 0.371500 0.240300
vn -0.776000 0.595500 0.207900
vn -0.600800 0.783000 0.161000
vn -0.380700 0.919100 0.102000
vn -0.130400 0.990800 0.035000
vn -0.958200 -0.126200 -0.256800
s off
f 10//1 22//1 23//1
f 9//2 21//2 22//2
f 8//3 20//3 21//3
f 7//4 19//4 20//4
f 7//5 6//5 18//5
f 5//6 17//6 18//6
f 4//7 16//7 17//7
f 4//8 3//8 15//8
f 2//9 14//9 15//9
f 2//10 1//10 13//10
f 22//11 33//11 34//11
f 21//12 32//12 33//12
f 21//13 20//13 31//13
f 19//14 30//14 31//14
f 19//15 18//15 29//15
f 17//16 28//16 29//16
f 16//17 27//17 28//17
f 15//18 26//18 27//18
f 15//19 14//19 25//19
f 13//20 24//20 25//20
f 33//21 44//21 45//21
f 32//22 43//22 44//22
f 32//23 31//23 42//23
f 30//24 41//24 42//24
f 29//25 40//25 41//25
f 28//26 39//26 40//26
f 27//27 38//27 39//27
f 26//28 37//28 38//28
f 26//29 25//29 36//29
f 25//30 24//30 35//30
f 44//31 56//31 57//31
f 43//32 55//32 56//32
f 42//33 54//33 55//33
f 41//34 53//34 54//34
f 40//35 52//35 53//35
f 40//36 39//36 51//36
f 38//37 50//37 51//37
f 37//38 49//38 50//38
f 36//39 48//39 49//39
f 36//40 35//40 47//40
f 57//41 56//41 67//41
f 55//42 66//42 67//42
f 55//43 54//43 65//43
f 53//44 64//44 65//44
f 52//45 63//45 64//45
f 52//46 51//46 62//46
f 50//47 61//47 62//47
f 50//48 49//48 60//48
f 48//49 59//49 60//49
f 47//50 58//50 59//50
f 68//51 67//51 78//51
f 66//52 77//52 78//52
f 65//53 76//53 77//53
f 64//54 75//54 76//54
f 64//55 63//55 74//55
f 62//56 73//56 74//56
f 61//57 72//57 73//57
f 60//58 71//58 72//58
f 59//59 70//59 71//59
f 58//60 69//60 70//60
f 78//61 89//61 90//61
f 78//62 77//62 88//62
f 77//63 76//63 87//63
f 76//64 75//64 86//64
f 75//65 74//65 85//65
f 73//66 84//66 85//66
f 72//67 83//67 84//67
f 71//68 82//68 83//68
f 71//69 70//69 81//69
f 69//70 80//70 81//70
f 90//71 89//71 100//71
f 88//72 99//72 100//72
f 87//73 98//73 99//73
f 86//74 97//74 98//74
f 86//75 85//75 96//75
f 84//76 95//76 96//76
f 83//77 94//77 95//77
f 83//78 82//78 93//78
f 81//79 92//79 93//79
f 80//80 91//80 92//80
f 101//81 100//81 111//81
f 99//82 110//82 111//82
f 99//83 98//83 109//83
f 98//84 97//84 108//84
f 96//85 107//85 108//85
f 95//86 106//86 107//86
f 94//87 105//87 106//87
f 94//88 93//88 104//88
f 92//89 103//89 104//89
f 91//90 102//90 103//90
f 112//91 111//91 122//91
f 110//92 121//92 122//92
f 109//93 120//93 121//93
f 108//94 119//94 120//94
f 108//95 107//95 118//95
f 106//96 117//96 118//96
f 106//97 105//97 116//97
f 105//98 104//98 115//98
f 103//99 114//99 115//99
f 102//100 113//100 114//100
f 123//101 122//101 133//101
f 121//102 132//102 133//102
f 120//103 131//103 132//103
f 119//104 130//104 131//104
f 119//105 118//105 129//105
f 117//106 128//106 129//106
f 116//107 127//107 128//107
f 116//108 115//108 126//108
f 114//109 125//109 126//109
f 113//110 124//110 125//110
f 12//111 11//111 23//111
f 1//112 46//112 13//112
f 12//113 23//113 34//113
f 13//114 46//114 24//114
f 12//115 34//115 45//115
f 24//116 46//116 35//116
f 12//117 45//117 57//117
f 35//118 46//118 47//118
f 12//119 57//119 68//119
f 47//120 46//120 58//120
f 12//121 68//121 79//121
f 58//122 46//122 69//122
f 12//123 79//123 90//123
f 69//124 46//124 80//124
f 12//125 90//125 101//125
f 80//126 46//126 91//126
f 12//127 101//127 112//127
f 91//128 46//128 102//128
f 12//129 112//129 123//129
f 102//130 46//130 113//130
f 12//131 123//131 134//131
f 113//132 46//132 124//132
f 12//133 134//133 11//133
f 134//134 133//134 10//134
f 132//135 9//135 10//135
f 132//136 131//136 8//136
f 131//137 130//137 7//137
f 130//138 129//138 6//138
f 128//139 5//139 6//139
f 127//140 4//140 5//140
f 126//141 3//141 4//141
f 125//142 2//142 3//142
f 124//143 1//143 2//143
f 124//144 46//144 1//144
f 11//1 10//1 23//1
f 10//2 9//2 22//2
f 9//3 8//3 21//3
f 8//4 7//4 20//4
f 19//145 7//145 18//145
f 6//6 5//6 18//6
f 5//7 4//7 17//7
f 16//8 4//8 15//8
f 3//9 2//9 15//9
f 14//10 2//10 13//10
f 23//11 22//11 34//11
f 22//12 21//12 33//12
f 32//13 21//13 31//13
f 20//14 19//14 31//14
f 30//15 19//15 29//15
f 18//16 17//16 29//16
f 17//17 16//17 28//17
f 16//18 15//18 27//18
f 26//19 15//19 25//19
f 14//20 13//20 25//20
f 34//21 33//21 45//21
f 33//22 32//22 44//22
f 43//23 32//23 42//23
f 31//24 30//24 42//24
f 30//25 29//25 41//25
f 29//26 28//26 40//26
f 28//27 27//27 39//27
f 27//28 26//28 38//28
f 37//29 26//29 36//29
f 36//30 25//30 35//30
f 45//31 44//31 57//31
f 44//32 43//32 56//32
f 43//33 42//33 55//33
f 42//34 41//34 54//34
f 41//35 40//35 53//35
f 52//36 40//36 51//36
f 39//37 38//37 51//37
f 38//38 37//38 50//38
f 37//39 36//39 49//39
f 48//40 36//40 47//40
f 68//41 57//41 67//41
f 56//42 55//42 67//42
f 66//43 55//43 65//43
f 54//44 53//44 65//44
f 53//45 52//45 64//45
f 63//46 52//46 62//46
f 51//47 50//47 62//47
f 61//48 50//48 60//48
f 49//49 48//49 60//49
f 48//50 47//50 59//50
f 79//51 68//51 78//51
f 67//52 66//52 78//52
f 66//53 65//53 77//53
f 65//54 64//54 76//54
f 75//55 64//55 74//55
f 63//56 62//56 74//56
f 62//57 61//57 73//57
f 61//58 60//58 72//58
f 60//59 59//59 71//59
f 59//60 58//60 70//60
f 79//61 78//61 90//61
f 89//62 78//62 88//62
f 88//63 77//63 87//63
f 87//64 76//64 86//64
f 86//65 75//65 85//65
f 74//66 73//66 85//66
f 73//67 72//67 84//67
f 72//68 71//68 83//68
f 82//69 71//69 81//69
f 70//70 69//70 81//70
f 101//71 90//71 100//71
f 89//72 88//72 100//72
f 88//73 87//73 99//73
f 87//74 86//74 98//74
f 97//75 86//75 96//75
f 85//76 84//76 96//76
f 84//77 83//77 95//77
f 94//78 83//78 93//78
f 82//79 81//79 93//79
f 81//80 80//80 92//80
f 112//81 101//81 111//81
f 100//82 99//82 111//82
f 110//83 99//83 109//83
f 109//84 98//84 108//84
f 97//85 96//85 108//85
f 96//86 95//86 107//86
f 95//87 94//87 106//87
f 105//88 94//88 104//88
f 93//89 92//89 104//89
f 92//90 91//90 103//90
f 123//91 112//91 122//91
f 111//92 110//92 122//92
f 110//93 109//93 121//93
f 109//94 108//94 120//94
f 119//95 108//95 118//95
f 107//96 106//96 118//96
f 117//97 106//97 116//97
f 116//98 105//98 115//98
f 104//99 103//99 115//99
f 103//100 102//100 114//100
f 134//101 123//101 133//101
f 122//102 121//102 133//102
f 121//103 120//103 132//103
f 120//104 119//104 131//104
f 130//105 119//105 129//105
f 118//106 117//106 129//106
f 117//107 116//107 128//107
f 127//108 116//108 126//108
f 115//109 114//109 126//109
f 114//110 113//110 125//110
f 11//134 134//134 10//134
f 133//135 132//135 10//135
f 9//136 132//136 8//136
f 8//137 131//137 7//137
f 7//138 130//138 6//138
f 129//139 128//139 6//139
f 128//140 127//140 5//140
f 127//141 126//141 4//141
f 126//142 125//142 3//142
f 125//143 124//143 2//143
